<mxfile host="app.diagrams.net" modified="2023-06-13T14:01:31.500Z" agent="Mozilla/5.0 (Windows NT 10.0; Win64; x64) AppleWebKit/537.36 (KHTML, like Gecko) Chrome/114.0.0.0 Safari/537.36" etag="Vv6eV_8puYTF2IRluecG" version="21.3.7" type="github">
  <diagram id="R2lEEEUBdFMjLlhIrx00" name="Page-1">
    <mxGraphModel dx="2250" dy="605" grid="1" gridSize="10" guides="1" tooltips="1" connect="1" arrows="1" fold="1" page="1" pageScale="1" pageWidth="850" pageHeight="1100" math="0" shadow="0" extFonts="Permanent Marker^https://fonts.googleapis.com/css?family=Permanent+Marker">
      <root>
        <mxCell id="0" />
        <mxCell id="1" parent="0" />
        <mxCell id="uClE9g17FaUNfdT33ZjS-1" value="Pembeli" style="rounded=0;whiteSpace=wrap;html=1;" vertex="1" parent="1">
          <mxGeometry x="-30" y="350" width="120" height="60" as="geometry" />
        </mxCell>
        <mxCell id="uClE9g17FaUNfdT33ZjS-2" value="Barang" style="rounded=0;whiteSpace=wrap;html=1;" vertex="1" parent="1">
          <mxGeometry x="365" y="350" width="120" height="60" as="geometry" />
        </mxCell>
        <mxCell id="uClE9g17FaUNfdT33ZjS-3" value="Penjual" style="rounded=0;whiteSpace=wrap;html=1;" vertex="1" parent="1">
          <mxGeometry x="730" y="350" width="120" height="60" as="geometry" />
        </mxCell>
        <mxCell id="uClE9g17FaUNfdT33ZjS-6" value="Email" style="ellipse;whiteSpace=wrap;html=1;fillColor=#99CCFF;" vertex="1" parent="1">
          <mxGeometry x="-150" y="280" width="90" height="60" as="geometry" />
        </mxCell>
        <mxCell id="uClE9g17FaUNfdT33ZjS-7" value="Alamat" style="ellipse;whiteSpace=wrap;html=1;" vertex="1" parent="1">
          <mxGeometry x="-150" y="430" width="90" height="60" as="geometry" />
        </mxCell>
        <mxCell id="uClE9g17FaUNfdT33ZjS-8" value="Nama" style="ellipse;whiteSpace=wrap;html=1;" vertex="1" parent="1">
          <mxGeometry x="-170" y="350" width="90" height="60" as="geometry" />
        </mxCell>
        <mxCell id="uClE9g17FaUNfdT33ZjS-11" value="" style="endArrow=none;html=1;rounded=0;entryX=0;entryY=0.5;entryDx=0;entryDy=0;" edge="1" parent="1" source="uClE9g17FaUNfdT33ZjS-8" target="uClE9g17FaUNfdT33ZjS-1">
          <mxGeometry width="50" height="50" relative="1" as="geometry">
            <mxPoint x="-80" y="430" as="sourcePoint" />
            <mxPoint x="-9.289321881345245" y="380" as="targetPoint" />
          </mxGeometry>
        </mxCell>
        <mxCell id="uClE9g17FaUNfdT33ZjS-12" value="" style="endArrow=none;html=1;rounded=0;exitX=1;exitY=0.5;exitDx=0;exitDy=0;entryX=0;entryY=1;entryDx=0;entryDy=0;" edge="1" parent="1" source="uClE9g17FaUNfdT33ZjS-7" target="uClE9g17FaUNfdT33ZjS-1">
          <mxGeometry width="50" height="50" relative="1" as="geometry">
            <mxPoint x="-70" y="450" as="sourcePoint" />
            <mxPoint x="-20" y="400" as="targetPoint" />
          </mxGeometry>
        </mxCell>
        <mxCell id="uClE9g17FaUNfdT33ZjS-13" value="" style="endArrow=none;html=1;rounded=0;exitX=1;exitY=0.5;exitDx=0;exitDy=0;entryX=0;entryY=0;entryDx=0;entryDy=0;" edge="1" parent="1" source="uClE9g17FaUNfdT33ZjS-6" target="uClE9g17FaUNfdT33ZjS-1">
          <mxGeometry width="50" height="50" relative="1" as="geometry">
            <mxPoint x="-70" y="320" as="sourcePoint" />
            <mxPoint x="-20" y="270" as="targetPoint" />
          </mxGeometry>
        </mxCell>
        <mxCell id="uClE9g17FaUNfdT33ZjS-16" value="Email" style="ellipse;whiteSpace=wrap;html=1;fillColor=#99CCFF;" vertex="1" parent="1">
          <mxGeometry x="870" y="280" width="90" height="60" as="geometry" />
        </mxCell>
        <mxCell id="uClE9g17FaUNfdT33ZjS-17" value="Nama" style="ellipse;whiteSpace=wrap;html=1;" vertex="1" parent="1">
          <mxGeometry x="900" y="350" width="90" height="60" as="geometry" />
        </mxCell>
        <mxCell id="uClE9g17FaUNfdT33ZjS-18" value="" style="endArrow=none;html=1;rounded=0;entryX=0;entryY=0.5;entryDx=0;entryDy=0;" edge="1" parent="1" source="uClE9g17FaUNfdT33ZjS-3" target="uClE9g17FaUNfdT33ZjS-17">
          <mxGeometry width="50" height="50" relative="1" as="geometry">
            <mxPoint x="850" y="430" as="sourcePoint" />
            <mxPoint x="920.7106781186548" y="380" as="targetPoint" />
          </mxGeometry>
        </mxCell>
        <mxCell id="uClE9g17FaUNfdT33ZjS-19" value="" style="endArrow=none;html=1;rounded=0;entryX=0;entryY=0.5;entryDx=0;entryDy=0;exitX=1;exitY=0;exitDx=0;exitDy=0;" edge="1" parent="1" source="uClE9g17FaUNfdT33ZjS-3" target="uClE9g17FaUNfdT33ZjS-16">
          <mxGeometry width="50" height="50" relative="1" as="geometry">
            <mxPoint x="510" y="390" as="sourcePoint" />
            <mxPoint x="560" y="340" as="targetPoint" />
          </mxGeometry>
        </mxCell>
        <mxCell id="uClE9g17FaUNfdT33ZjS-21" value="SKU" style="ellipse;whiteSpace=wrap;html=1;fillColor=#99CCFF;" vertex="1" parent="1">
          <mxGeometry x="335" y="250" width="90" height="60" as="geometry" />
        </mxCell>
        <mxCell id="uClE9g17FaUNfdT33ZjS-22" value="Nama" style="ellipse;whiteSpace=wrap;html=1;" vertex="1" parent="1">
          <mxGeometry x="430" y="250" width="90" height="60" as="geometry" />
        </mxCell>
        <mxCell id="uClE9g17FaUNfdT33ZjS-23" value="Harga" style="ellipse;whiteSpace=wrap;html=1;" vertex="1" parent="1">
          <mxGeometry x="380" y="440" width="90" height="60" as="geometry" />
        </mxCell>
        <mxCell id="uClE9g17FaUNfdT33ZjS-24" value="" style="endArrow=none;html=1;rounded=0;entryX=0.5;entryY=1;entryDx=0;entryDy=0;exitX=0.25;exitY=0;exitDx=0;exitDy=0;" edge="1" parent="1" source="uClE9g17FaUNfdT33ZjS-2" target="uClE9g17FaUNfdT33ZjS-21">
          <mxGeometry width="50" height="50" relative="1" as="geometry">
            <mxPoint x="330" y="360" as="sourcePoint" />
            <mxPoint x="380" y="310" as="targetPoint" />
          </mxGeometry>
        </mxCell>
        <mxCell id="uClE9g17FaUNfdT33ZjS-25" value="" style="endArrow=none;html=1;rounded=0;entryX=0.411;entryY=1.05;entryDx=0;entryDy=0;entryPerimeter=0;exitX=0.7;exitY=0.017;exitDx=0;exitDy=0;exitPerimeter=0;" edge="1" parent="1" source="uClE9g17FaUNfdT33ZjS-2" target="uClE9g17FaUNfdT33ZjS-22">
          <mxGeometry width="50" height="50" relative="1" as="geometry">
            <mxPoint x="430" y="360" as="sourcePoint" />
            <mxPoint x="480" y="310" as="targetPoint" />
          </mxGeometry>
        </mxCell>
        <mxCell id="uClE9g17FaUNfdT33ZjS-26" value="" style="endArrow=none;html=1;rounded=0;entryX=0.5;entryY=1;entryDx=0;entryDy=0;" edge="1" parent="1" source="uClE9g17FaUNfdT33ZjS-23" target="uClE9g17FaUNfdT33ZjS-2">
          <mxGeometry width="50" height="50" relative="1" as="geometry">
            <mxPoint x="380" y="460" as="sourcePoint" />
            <mxPoint x="430" y="410" as="targetPoint" />
          </mxGeometry>
        </mxCell>
        <mxCell id="uClE9g17FaUNfdT33ZjS-27" value="Membeli" style="rhombus;whiteSpace=wrap;html=1;" vertex="1" parent="1">
          <mxGeometry x="205" y="340" width="80" height="80" as="geometry" />
        </mxCell>
        <mxCell id="uClE9g17FaUNfdT33ZjS-28" value="Menjual" style="rhombus;whiteSpace=wrap;html=1;" vertex="1" parent="1">
          <mxGeometry x="590" y="340" width="80" height="80" as="geometry" />
        </mxCell>
        <mxCell id="uClE9g17FaUNfdT33ZjS-29" value="N" style="endArrow=none;html=1;rounded=0;entryX=0;entryY=0.5;entryDx=0;entryDy=0;exitX=1;exitY=0.5;exitDx=0;exitDy=0;" edge="1" parent="1" source="uClE9g17FaUNfdT33ZjS-1" target="uClE9g17FaUNfdT33ZjS-27">
          <mxGeometry width="50" height="50" relative="1" as="geometry">
            <mxPoint x="70" y="440" as="sourcePoint" />
            <mxPoint x="115" y="390" as="targetPoint" />
          </mxGeometry>
        </mxCell>
        <mxCell id="uClE9g17FaUNfdT33ZjS-30" value="N" style="endArrow=none;html=1;rounded=0;entryX=0;entryY=0.5;entryDx=0;entryDy=0;exitX=1;exitY=0.5;exitDx=0;exitDy=0;" edge="1" parent="1" source="uClE9g17FaUNfdT33ZjS-27" target="uClE9g17FaUNfdT33ZjS-2">
          <mxGeometry width="50" height="50" relative="1" as="geometry">
            <mxPoint x="240" y="390" as="sourcePoint" />
            <mxPoint x="265" y="390" as="targetPoint" />
          </mxGeometry>
        </mxCell>
        <mxCell id="uClE9g17FaUNfdT33ZjS-31" value="N" style="endArrow=none;html=1;rounded=0;entryX=0;entryY=0.5;entryDx=0;entryDy=0;exitX=1;exitY=0.5;exitDx=0;exitDy=0;" edge="1" parent="1" source="uClE9g17FaUNfdT33ZjS-2" target="uClE9g17FaUNfdT33ZjS-28">
          <mxGeometry width="50" height="50" relative="1" as="geometry">
            <mxPoint x="250" y="400" as="sourcePoint" />
            <mxPoint x="275" y="400" as="targetPoint" />
          </mxGeometry>
        </mxCell>
        <mxCell id="uClE9g17FaUNfdT33ZjS-32" value="1" style="endArrow=none;html=1;rounded=0;entryX=1;entryY=0.5;entryDx=0;entryDy=0;exitX=0;exitY=0.5;exitDx=0;exitDy=0;" edge="1" parent="1" source="uClE9g17FaUNfdT33ZjS-3" target="uClE9g17FaUNfdT33ZjS-28">
          <mxGeometry width="50" height="50" relative="1" as="geometry">
            <mxPoint x="700" y="380" as="sourcePoint" />
            <mxPoint x="365" y="410" as="targetPoint" />
          </mxGeometry>
        </mxCell>
        <mxCell id="uClE9g17FaUNfdT33ZjS-33" value="Atribut" style="ellipse;whiteSpace=wrap;html=1;" vertex="1" parent="1">
          <mxGeometry x="10" y="30" width="90" height="60" as="geometry" />
        </mxCell>
        <mxCell id="uClE9g17FaUNfdT33ZjS-34" value="Entity" style="rounded=0;whiteSpace=wrap;html=1;" vertex="1" parent="1">
          <mxGeometry x="120" y="30" width="120" height="60" as="geometry" />
        </mxCell>
        <mxCell id="uClE9g17FaUNfdT33ZjS-35" value="Relation" style="rhombus;whiteSpace=wrap;html=1;" vertex="1" parent="1">
          <mxGeometry x="260" y="20" width="80" height="80" as="geometry" />
        </mxCell>
        <mxCell id="uClE9g17FaUNfdT33ZjS-38" value="&lt;ul&gt;&lt;li&gt;Bllue = Atribut/Primary Key&lt;/li&gt;&lt;li&gt;Green = Foreign Key&lt;/li&gt;&lt;li&gt;N = Many&lt;/li&gt;&lt;li&gt;1 = One&lt;/li&gt;&lt;/ul&gt;" style="text;strokeColor=none;fillColor=none;html=1;whiteSpace=wrap;verticalAlign=middle;overflow=hidden;" vertex="1" parent="1">
          <mxGeometry x="360" y="10" width="460" height="80" as="geometry" />
        </mxCell>
        <mxCell id="uClE9g17FaUNfdT33ZjS-39" value="Email.Pembeli" style="ellipse;whiteSpace=wrap;html=1;fillColor=#99FF99;" vertex="1" parent="1">
          <mxGeometry x="250" y="470" width="85" height="60" as="geometry" />
        </mxCell>
        <mxCell id="uClE9g17FaUNfdT33ZjS-40" value="SKU.Barang" style="ellipse;whiteSpace=wrap;html=1;fillColor=#99FF99;" vertex="1" parent="1">
          <mxGeometry x="170" y="260" width="85" height="60" as="geometry" />
        </mxCell>
        <mxCell id="uClE9g17FaUNfdT33ZjS-41" value="" style="endArrow=none;html=1;rounded=0;exitX=0;exitY=0;exitDx=0;exitDy=0;entryX=0.5;entryY=1;entryDx=0;entryDy=0;" edge="1" parent="1" source="uClE9g17FaUNfdT33ZjS-27" target="uClE9g17FaUNfdT33ZjS-40">
          <mxGeometry width="50" height="50" relative="1" as="geometry">
            <mxPoint x="160" y="370" as="sourcePoint" />
            <mxPoint x="210" y="320" as="targetPoint" />
          </mxGeometry>
        </mxCell>
        <mxCell id="uClE9g17FaUNfdT33ZjS-42" value="" style="endArrow=none;html=1;rounded=0;exitX=0.5;exitY=1;exitDx=0;exitDy=0;entryX=0.424;entryY=0;entryDx=0;entryDy=0;entryPerimeter=0;" edge="1" parent="1" source="uClE9g17FaUNfdT33ZjS-27" target="uClE9g17FaUNfdT33ZjS-39">
          <mxGeometry width="50" height="50" relative="1" as="geometry">
            <mxPoint x="235" y="370" as="sourcePoint" />
            <mxPoint x="223" y="330" as="targetPoint" />
          </mxGeometry>
        </mxCell>
        <mxCell id="uClE9g17FaUNfdT33ZjS-43" value="Email.Penjual" style="ellipse;whiteSpace=wrap;html=1;fillColor=#99FF99;" vertex="1" parent="1">
          <mxGeometry x="590" y="450" width="85" height="60" as="geometry" />
        </mxCell>
        <mxCell id="uClE9g17FaUNfdT33ZjS-44" value="SKU.Barang" style="ellipse;whiteSpace=wrap;html=1;fillColor=#99FF99;" vertex="1" parent="1">
          <mxGeometry x="627.5" y="260" width="85" height="60" as="geometry" />
        </mxCell>
        <mxCell id="uClE9g17FaUNfdT33ZjS-45" value="" style="endArrow=none;html=1;rounded=0;entryX=0.5;entryY=1;entryDx=0;entryDy=0;exitX=0.5;exitY=0;exitDx=0;exitDy=0;" edge="1" parent="1" source="uClE9g17FaUNfdT33ZjS-43" target="uClE9g17FaUNfdT33ZjS-28">
          <mxGeometry width="50" height="50" relative="1" as="geometry">
            <mxPoint x="580" y="460" as="sourcePoint" />
            <mxPoint x="630" y="410" as="targetPoint" />
          </mxGeometry>
        </mxCell>
        <mxCell id="uClE9g17FaUNfdT33ZjS-46" value="" style="endArrow=none;html=1;rounded=0;entryX=0.5;entryY=1;entryDx=0;entryDy=0;exitX=1;exitY=0;exitDx=0;exitDy=0;" edge="1" parent="1" source="uClE9g17FaUNfdT33ZjS-28" target="uClE9g17FaUNfdT33ZjS-44">
          <mxGeometry width="50" height="50" relative="1" as="geometry">
            <mxPoint x="630" y="360" as="sourcePoint" />
            <mxPoint x="680" y="310" as="targetPoint" />
          </mxGeometry>
        </mxCell>
        <mxCell id="uClE9g17FaUNfdT33ZjS-47" value="Jumlah" style="ellipse;whiteSpace=wrap;html=1;" vertex="1" parent="1">
          <mxGeometry x="150" y="470" width="90" height="60" as="geometry" />
        </mxCell>
        <mxCell id="uClE9g17FaUNfdT33ZjS-48" value="" style="endArrow=none;html=1;rounded=0;entryX=0.5;entryY=1;entryDx=0;entryDy=0;exitX=0.5;exitY=0;exitDx=0;exitDy=0;" edge="1" parent="1" source="uClE9g17FaUNfdT33ZjS-47" target="uClE9g17FaUNfdT33ZjS-27">
          <mxGeometry width="50" height="50" relative="1" as="geometry">
            <mxPoint x="200" y="470" as="sourcePoint" />
            <mxPoint x="250" y="420" as="targetPoint" />
          </mxGeometry>
        </mxCell>
        <mxCell id="uClE9g17FaUNfdT33ZjS-50" value="Dompet" style="rounded=0;whiteSpace=wrap;html=1;" vertex="1" parent="1">
          <mxGeometry x="-30" y="580" width="120" height="60" as="geometry" />
        </mxCell>
        <mxCell id="uClE9g17FaUNfdT33ZjS-51" value="Email" style="ellipse;whiteSpace=wrap;html=1;fillColor=#99CCFF;" vertex="1" parent="1">
          <mxGeometry x="-15" y="700" width="90" height="60" as="geometry" />
        </mxCell>
        <mxCell id="uClE9g17FaUNfdT33ZjS-53" value="Memiliki" style="rhombus;whiteSpace=wrap;html=1;" vertex="1" parent="1">
          <mxGeometry x="-10" y="460" width="80" height="80" as="geometry" />
        </mxCell>
        <mxCell id="uClE9g17FaUNfdT33ZjS-54" value="1" style="endArrow=none;html=1;rounded=0;entryX=0.5;entryY=1;entryDx=0;entryDy=0;exitX=0.5;exitY=0;exitDx=0;exitDy=0;" edge="1" parent="1" source="uClE9g17FaUNfdT33ZjS-53" target="uClE9g17FaUNfdT33ZjS-1">
          <mxGeometry width="50" height="50" relative="1" as="geometry">
            <mxPoint x="500" y="500" as="sourcePoint" />
            <mxPoint x="550" y="450" as="targetPoint" />
          </mxGeometry>
        </mxCell>
        <mxCell id="uClE9g17FaUNfdT33ZjS-55" value="1" style="endArrow=none;html=1;rounded=0;entryX=0.5;entryY=0;entryDx=0;entryDy=0;exitX=0.5;exitY=1;exitDx=0;exitDy=0;" edge="1" parent="1" source="uClE9g17FaUNfdT33ZjS-53" target="uClE9g17FaUNfdT33ZjS-50">
          <mxGeometry width="50" height="50" relative="1" as="geometry">
            <mxPoint x="40" y="470" as="sourcePoint" />
            <mxPoint x="40" y="420" as="targetPoint" />
          </mxGeometry>
        </mxCell>
        <mxCell id="uClE9g17FaUNfdT33ZjS-56" value="Saldo" style="ellipse;whiteSpace=wrap;html=1;" vertex="1" parent="1">
          <mxGeometry x="100" y="690" width="90" height="60" as="geometry" />
        </mxCell>
        <mxCell id="uClE9g17FaUNfdT33ZjS-57" value="" style="endArrow=none;html=1;rounded=0;exitX=0.5;exitY=1;exitDx=0;exitDy=0;entryX=0.5;entryY=0;entryDx=0;entryDy=0;" edge="1" parent="1" source="uClE9g17FaUNfdT33ZjS-50" target="uClE9g17FaUNfdT33ZjS-51">
          <mxGeometry width="50" height="50" relative="1" as="geometry">
            <mxPoint x="-50" y="470" as="sourcePoint" />
            <mxPoint x="-20" y="420" as="targetPoint" />
          </mxGeometry>
        </mxCell>
        <mxCell id="uClE9g17FaUNfdT33ZjS-58" value="" style="endArrow=none;html=1;rounded=0;exitX=0.75;exitY=1;exitDx=0;exitDy=0;entryX=0.5;entryY=0;entryDx=0;entryDy=0;" edge="1" parent="1" source="uClE9g17FaUNfdT33ZjS-50" target="uClE9g17FaUNfdT33ZjS-56">
          <mxGeometry width="50" height="50" relative="1" as="geometry">
            <mxPoint x="40" y="650" as="sourcePoint" />
            <mxPoint x="40" y="710" as="targetPoint" />
          </mxGeometry>
        </mxCell>
        <mxCell id="uClE9g17FaUNfdT33ZjS-59" value="Email.Pembeli" style="ellipse;whiteSpace=wrap;html=1;fillColor=#99FF99;" vertex="1" parent="1">
          <mxGeometry x="-130" y="510" width="85" height="60" as="geometry" />
        </mxCell>
        <mxCell id="uClE9g17FaUNfdT33ZjS-60" value="Email.Dompet" style="ellipse;whiteSpace=wrap;html=1;fillColor=#99FF99;" vertex="1" parent="1">
          <mxGeometry x="90" y="520" width="85" height="60" as="geometry" />
        </mxCell>
        <mxCell id="uClE9g17FaUNfdT33ZjS-61" value="" style="endArrow=none;html=1;rounded=0;exitX=0;exitY=0.5;exitDx=0;exitDy=0;entryX=1;entryY=0;entryDx=0;entryDy=0;" edge="1" parent="1" source="uClE9g17FaUNfdT33ZjS-53" target="uClE9g17FaUNfdT33ZjS-59">
          <mxGeometry width="50" height="50" relative="1" as="geometry">
            <mxPoint x="40" y="650" as="sourcePoint" />
            <mxPoint x="40" y="710" as="targetPoint" />
          </mxGeometry>
        </mxCell>
        <mxCell id="uClE9g17FaUNfdT33ZjS-62" value="" style="endArrow=none;html=1;rounded=0;exitX=1;exitY=0.5;exitDx=0;exitDy=0;entryX=0;entryY=0;entryDx=0;entryDy=0;" edge="1" parent="1" source="uClE9g17FaUNfdT33ZjS-53" target="uClE9g17FaUNfdT33ZjS-60">
          <mxGeometry width="50" height="50" relative="1" as="geometry">
            <mxPoint x="50" y="660" as="sourcePoint" />
            <mxPoint x="50" y="720" as="targetPoint" />
          </mxGeometry>
        </mxCell>
      </root>
    </mxGraphModel>
  </diagram>
</mxfile>
